<?xml version="1.0" encoding="UTF-8" standalone="no"?><!DOCTYPE svg PUBLIC "-//W3C//DTD SVG 1.1//EN" "http://www.w3.org/Graphics/SVG/1.1/DTD/svg11.dtd"><svg width="100%" height="100%" viewBox="0 0 934 961" version="1.1" xmlns="http://www.w3.org/2000/svg" xmlns:xlink="http://www.w3.org/1999/xlink" xml:space="preserve" style="fill-rule:evenodd;clip-rule:evenodd;stroke-linejoin:round;stroke-miterlimit:1.41421;"><g id="Layer-2"><path d="M373.435,896.969c6.737,-10.406 13.028,-20.116 19.312,-29.83c2.893,-4.471 5.904,-8.873 8.609,-13.455c1.433,-2.429 3.037,-3.086 5.721,-2.319c4.301,1.228 10.132,0.83 12.646,3.569c2.699,2.941 -0.378,8.454 -1.042,12.797c-3.173,20.726 -6.665,41.403 -9.878,62.124c-0.61,3.937 -1.457,5.582 -6.16,4.413c-10.605,-2.639 -10.694,-2.309 -8.909,-12.995c2.013,-12.052 4.037,-24.101 5.414,-36.42c-8.203,12.678 -16.602,25.237 -24.484,38.112c-2.223,3.633 -4.471,3.684 -7.755,2.621c-3.263,-1.056 -6.961,-0.563 -7.298,-6.122c-0.775,-12.783 -2.465,-25.512 -3.803,-38.26c-0.118,-1.124 -0.387,-2.231 -1.494,-3.56c-0.816,2.677 -1.653,5.347 -2.444,8.031c-3.01,10.216 -6.081,20.414 -8.958,30.666c-0.81,2.887 -1.771,4.034 -5.14,3.22c-11.526,-2.786 -11.649,-2.66 -8.22,-14.123c6.296,-21.039 12.774,-42.025 18.985,-63.088c0.902,-3.063 1.939,-3.871 5.155,-3.177c13.299,2.87 13.384,2.748 14.975,16.061c1.628,13.624 3.121,27.264 4.768,41.735" style="fill:#010101;fill-rule:nonzero;"/><path d="M232.561,776.879c13.495,0.048 28.089,10.164 32.47,20.773c0.969,2.348 0.481,3.664 -1.593,4.878c-2.294,1.345 -4.541,2.802 -6.664,4.401c-2.202,1.659 -3.539,1.811 -4.72,-1.194c-1.868,-4.753 -5.122,-8.565 -9.402,-11.379c-3.547,-2.33 -7.371,-3.59 -11.05,-0.438c-3.612,3.095 -3.424,6.985 -1.412,10.909c2.354,4.592 5.027,9.031 7.181,13.712c5.087,11.057 3.544,20.879 -4.197,28.538c-7.518,7.439 -17.959,9.029 -28.689,4.074c-9.242,-4.268 -16.019,-11.147 -20.617,-20.253c-1.393,-2.76 -0.988,-4.624 1.633,-6.267c2.947,-1.848 5.795,-5.491 8.626,-5.433c2.913,0.061 3.023,5.231 4.86,7.903c3.182,4.626 6.908,8.534 12.187,10.718c3.4,1.407 6.523,0.974 9.243,-1.581c2.76,-2.59 3.975,-5.607 2.857,-9.45c-1.231,-4.234 -3.787,-7.75 -5.859,-11.534c-4.54,-8.29 -7.66,-16.791 -2.847,-26.071c4.225,-8.147 11.126,-12.052 17.993,-12.306" style="fill:#010101;fill-rule:nonzero;"/><path d="M155.829,702.643c8.285,0.159 15.03,6.199 19.638,14.909c4.135,7.816 2.947,15.42 -2.187,22.544c-2.067,2.868 -4.454,5.398 -7.145,7.64c-9.339,7.78 -18.838,15.375 -28.019,23.338c-3.042,2.638 -4.157,0.754 -5.828,-1.217c-1.747,-2.06 -2.959,-3.532 0.091,-5.919c9.179,-7.185 18.073,-14.733 27.054,-22.169c2.959,-2.45 5.711,-5.103 7.675,-8.474c3.573,-6.132 3.186,-12.048 -1.157,-17.126c-4.433,-5.181 -10.1,-6.596 -16.693,-4.255c-4.341,1.543 -7.794,4.422 -11.269,7.28c-8.364,6.876 -16.885,13.574 -24.99,20.743c-3.471,3.07 -4.514,0.678 -6.526,-1.392c-2.311,-2.377 -1.633,-3.676 0.652,-5.517c9.337,-7.523 18.506,-15.253 27.795,-22.836c6.286,-5.132 12.377,-7.524 20.909,-7.549" style="fill:#040404;fill-rule:nonzero;"/><path d="M270.272,129.381c-1.133,5.663 -3.088,10.305 -7.429,13.566c-7.42,5.574 -15.612,5.171 -21.897,-1.806c-7.496,-8.321 -12.326,-18.514 -18.336,-27.874c-2.151,-3.35 2.211,-3.208 3.593,-4.584c1.346,-1.342 2.879,-2.046 4.328,0.44c3.347,5.745 6.935,11.352 10.491,16.973c1.508,2.385 3.027,4.792 4.81,6.969c4.364,5.33 9.192,6.34 13.905,3.129c5.386,-3.669 7.268,-10.257 4.032,-15.78c-4.286,-7.315 -8.801,-14.508 -13.513,-21.555c-2.1,-3.142 -1.562,-4.582 1.591,-6.517c3.135,-1.923 4.357,-1.207 6.108,1.663c6.754,11.07 13.789,21.968 20.688,32.95c1.023,1.629 3.423,3.23 -0.017,5.068c-2.36,1.261 -4.456,3.46 -6.435,-0.376c-0.356,-0.69 -1.018,-1.221 -1.919,-2.266" style="fill:#040404;fill-rule:nonzero;"/><path d="M742.475,142.499c3.74,0.254 6.737,-0.209 9.651,0.669c11.768,3.548 16.496,16.16 9.021,26.376c-6.07,8.296 -13.34,15.731 -20.273,23.371c-3.005,3.312 -3.997,-1.12 -5.828,-2.068c-1.99,-1.032 -2.22,-2.364 -0.446,-4.272c5.669,-6.096 11.21,-12.317 16.639,-18.629c5.889,-6.846 6.051,-12.457 0.766,-17.053c-5.437,-4.729 -12.353,-3.889 -18.059,2.338c-5.064,5.525 -10.015,11.152 -14.995,16.752c-1.785,2.008 -3.078,4.344 -6.199,1.085c-2.404,-2.509 -3.676,-3.734 -0.641,-6.954c8.902,-9.446 17.321,-19.346 25.989,-29.016c1.144,-1.275 2.15,-4.077 4.523,-1.329c1.498,1.733 5.186,2.901 1.778,6.12c-0.576,0.545 -0.965,1.29 -1.926,2.61" style="fill:#040404;fill-rule:nonzero;"/><path d="M522.079,45.606c5.512,-4.999 11.094,-6.531 17.341,-5.357c8.544,1.605 14.183,9.08 13.169,18.445c-1.038,9.584 -2.968,19.068 -4.201,28.636c-0.603,4.677 -3.58,2.601 -5.898,2.587c-3.009,-0.019 -3.335,-1.502 -2.847,-4.245c1.43,-8.024 2.606,-16.1 3.681,-24.181c1.117,-8.398 -1.94,-13.497 -8.425,-14.547c-6.844,-1.109 -12.806,3.782 -14.082,11.621c-1.281,7.882 -2.652,15.754 -3.677,23.671c-0.445,3.431 -2.135,3.349 -4.792,2.945c-2.762,-0.419 -4.748,-0.755 -4.134,-4.447c2.15,-12.964 4.074,-25.967 6.096,-38.953c0.353,-2.262 0.18,-4.616 4.002,-3.974c3.18,0.534 4.525,1.533 3.788,4.759c-0.144,0.628 -0.021,1.316 -0.021,3.04" style="fill:#030303;fill-rule:nonzero;"/><path d="M90.63,574.581c4.975,2.162 8.72,4.999 11.023,9.504c4.375,8.559 2.086,17.299 -6.417,21.766c-9.924,5.212 -21,7.352 -31.577,10.811c-3.681,1.203 -2.837,-2.692 -3.793,-4.443c-1.018,-1.867 -1.031,-3.372 1.529,-4.135c6.852,-2.041 13.678,-4.175 20.479,-6.382c2.522,-0.818 5.065,-1.719 7.388,-2.97c5.855,-3.153 7.624,-7.416 5.56,-12.675c-2.236,-5.699 -8.396,-9.058 -14.077,-7.385c-8.456,2.489 -16.913,5.011 -25.239,7.896c-3.336,1.157 -4.032,-0.265 -4.722,-2.889c-0.636,-2.422 -2.016,-4.501 1.919,-5.693c12.897,-3.903 25.712,-8.081 38.51,-12.301c2.16,-0.711 3.759,-1.425 4.415,1.596c0.503,2.321 2.278,4.887 -1.74,5.873c-0.935,0.229 -1.792,0.772 -3.258,1.427" style="fill:#040404;fill-rule:nonzero;"/><path d="M890.583,509.509c3.671,3.987 5.792,7.689 6.24,12.108c1.154,11.371 -7.078,19.764 -19.096,18.858c-9.458,-0.714 -18.846,-2.315 -28.288,-3.311c-4.461,-0.47 -2.368,-3.427 -2.422,-5.554c-0.07,-2.665 0.913,-3.764 3.951,-3.303c8.232,1.248 16.511,2.212 24.791,3.111c8.104,0.881 13.343,-2.679 14.012,-9.261c0.662,-6.494 -4.239,-12.241 -11.504,-13.26c-7.917,-1.112 -15.843,-2.191 -23.792,-3.022c-3.359,-0.351 -4.098,-1.808 -3.66,-4.92c0.403,-2.854 0.857,-4.548 4.514,-4.047c13.529,1.852 27.097,3.438 40.666,4.982c2.017,0.23 2.797,1.017 2.263,2.785c-0.543,1.8 1.03,4.763 -2.45,5.079c-1.29,0.118 -2.612,-0.107 -5.225,-0.245" style="fill:#040404;fill-rule:nonzero;"/><path d="M365.318,54.933c-7.409,1.891 -14.174,3.384 -20.774,5.411c-2.852,0.875 -3.797,0.24 -4.53,-2.42c-0.72,-2.613 -0.303,-3.838 2.566,-4.549c8.879,-2.202 17.671,-4.753 26.528,-7.047c1.655,-0.429 3.701,-2.003 5.104,-0.289c1.498,1.832 1.522,4.197 0.504,6.588c-4.886,11.482 -9.66,23.013 -14.475,34.526c-0.376,0.899 -0.767,1.792 -1.637,3.822c8.14,-2.162 15.413,-4.03 22.643,-6.051c2.378,-0.664 3.962,-0.89 4.741,2.226c0.716,2.857 0.302,4.046 -2.763,4.796c-9.697,2.371 -19.298,5.126 -28.966,7.621c-1.508,0.389 -3.432,1.809 -4.657,0.259c-1.319,-1.667 -1.54,-3.87 -0.579,-6.095c2.839,-6.57 5.545,-13.199 8.311,-19.801c2.551,-6.087 5.114,-12.17 7.984,-18.997" style="fill:#040404;fill-rule:nonzero;"/><path d="M84.516,283.03c-3.308,7.158 -6.309,13.263 -8.943,19.523c-1.187,2.824 -2.317,3.286 -5.143,1.968c-2.777,-1.295 -2.738,-2.539 -1.584,-4.951c3.873,-8.095 7.485,-16.315 11.334,-24.423c0.792,-1.669 0.857,-4.549 3.302,-4.419c2.513,0.133 4.278,1.971 5.538,4.437c5.518,10.802 11.24,21.5 16.891,32.235c0.526,1.002 1.067,1.996 2.076,3.88c3.442,-7.395 6.652,-14.036 9.614,-20.786c1.154,-2.629 1.986,-4.125 5.373,-2.55c3.393,1.577 2.2,3.27 1.194,5.447c-4.116,8.899 -8.102,17.86 -12.316,26.712c-0.694,1.459 -0.745,4.109 -3.156,3.872c-2.172,-0.214 -3.771,-1.682 -4.863,-3.811c-5.533,-10.795 -11.196,-21.523 -16.812,-32.276c-0.678,-1.299 -1.344,-2.606 -2.505,-4.858" style="fill:#040404;fill-rule:nonzero;"/><path d="M850.113,282.65c-3.062,-6.115 -6.009,-11.983 -8.938,-17.86c-1.101,-2.21 -2.601,-4.08 1.028,-5.978c3.657,-1.912 4.241,0.341 5.374,2.6c4.024,8.021 8.123,16.004 12.083,24.056c0.673,1.37 2.509,2.9 1.149,4.442c-1.569,1.782 -3.816,2.374 -6.377,1.86c-11.083,-2.225 -22.184,-4.361 -33.297,-6.429c-2.232,-0.416 -4.414,-1.503 -7.175,-0.843c3.395,6.802 6.64,13.489 10.073,20.079c1.186,2.278 2.227,3.872 -1.094,5.441c-2.856,1.35 -3.91,0.738 -5.203,-1.951c-4.321,-8.988 -8.963,-17.82 -13.398,-26.753c-0.69,-1.388 -2.501,-2.878 -1.232,-4.458c1.394,-1.734 3.553,-2.201 5.906,-1.737c11.252,2.219 22.515,4.385 33.789,6.489c2.23,0.416 4.37,1.546 7.312,1.042" style="fill:#040404;fill-rule:nonzero;"/><path d="M78.6,419.414c1.102,-7.469 2.375,-14.789 3.179,-22.16c0.342,-3.143 1.519,-3.792 4.42,-3.502c3.439,0.343 2.881,2.448 2.574,4.618c-1.396,9.877 -2.742,19.762 -4.261,29.619c-0.223,1.447 0.487,3.763 -1.797,4.147c-2.186,0.366 -4.153,-0.41 -5.814,-2.144c-8.511,-8.884 -17.11,-17.683 -25.663,-26.525c-0.904,-0.935 -1.716,-1.959 -3.431,-3.931c-1.067,7.774 -1.985,14.287 -2.844,20.808c-0.335,2.539 -0.269,4.815 -4.255,4.265c-3.992,-0.55 -3.276,-2.742 -2.919,-5.252c1.243,-8.723 2.394,-17.461 3.714,-26.172c0.254,-1.675 -0.425,-4.3 1.703,-4.743c2.164,-0.449 4.463,0.321 6.269,2.209c6.438,6.731 12.96,13.383 19.549,19.965c2.929,2.925 6.093,5.613 9.576,8.798" style="fill:#040404;fill-rule:nonzero;"/><path d="M845.288,355.108c12.813,0.569 24.243,1.071 35.673,1.586c3.9,0.176 6.752,3.439 6.619,7.289c-0.07,2.018 -1.369,1.499 -2.427,1.413c-14.944,-1.202 -29.881,-2.499 -44.831,-3.603c-3.352,-0.248 -3.731,-2.523 -4.619,-4.913c-0.898,-2.421 -0.512,-3.899 1.606,-5.492c11.708,-8.811 23.333,-17.734 34.925,-26.698c2.008,-1.552 2.916,-2.054 4.037,1.009c1.539,4.205 1.13,6.735 -2.98,9.424c-9.168,6 -17.882,12.693 -28.003,19.985" style="fill:#040404;fill-rule:nonzero;"/><path d="M645.076,73.184c8.561,3.365 8.533,3.361 7.402,11.265c-1.48,10.344 -2.912,20.695 -4.54,32.289c4.147,-3.874 7.508,-6.991 10.841,-10.137c4.359,-4.117 8.721,-8.233 13.037,-12.396c5.701,-5.499 5.683,-5.518 13.094,-0.418c-5.419,4.782 -10.742,9.485 -16.07,14.181c-6.498,5.727 -13.061,11.384 -19.467,17.213c-1.984,1.804 -3.671,1.736 -5.769,0.433c-1.932,-1.2 -4.292,-1.717 -3.907,-4.956c1.863,-15.7 3.575,-31.417 5.379,-47.474" style="fill:#040404;fill-rule:nonzero;"/><path d="M122.165,211.216c0.023,-6.327 5.986,-14.952 11.743,-17.502c2.696,-1.194 3.113,0.862 4.115,2.22c1.122,1.519 1.518,2.721 -0.755,3.862c-3.007,1.508 -5.491,3.81 -6.93,6.944c-1.193,2.599 -1.238,5.217 0.997,7.367c2.023,1.945 4.416,2.215 6.912,0.994c3.58,-1.752 7.04,-3.775 10.701,-5.328c5.4,-2.291 10.453,-1.465 14.746,2.665c4.144,3.987 5.071,8.848 3.349,14.215c-2.078,6.478 -6.492,11.06 -12.069,14.748c-3.048,2.016 -4.046,-0.294 -5.47,-2.11c-1.997,-2.547 0.351,-2.997 1.801,-3.89c3.149,-1.94 6.063,-4.147 7.822,-7.507c1.484,-2.835 1.934,-5.769 -0.414,-8.363c-2.404,-2.655 -5.331,-3.168 -8.591,-1.519c-3.557,1.797 -7.001,3.926 -10.729,5.248c-8.988,3.189 -17.262,-2.739 -17.228,-12.044" style="fill:#040404;fill-rule:nonzero;"/><path d="M182.657,205.411c-4.118,-0.027 -7.31,-2.188 -10.161,-4.766c-5.794,-5.238 -11.511,-10.568 -17.079,-16.044c-2.227,-2.19 -3.92,-2.821 -5.916,0.068c-1.502,2.176 -2.985,1.985 -4.818,0.097c-1.625,-1.674 -2.597,-2.942 -0.222,-4.68c2.756,-2.017 2.347,-4.182 -0.227,-5.845c-4.773,-3.084 -1.591,-6.202 -0.224,-9.297c0.645,-1.462 1.73,-1.301 2.788,-0.341c0.369,0.336 0.708,0.704 1.078,1.039c5.498,4.976 5.487,4.964 10.691,-0.536c1.581,-1.672 2.6,-4.186 5.694,-1.133c2.978,2.939 0.883,4.143 -0.822,5.916c-5.248,5.457 -5.251,5.475 0.344,10.744c4.476,4.216 8.907,8.485 13.494,12.578c4.901,4.372 7.436,4.2 11.783,-0.462c0.953,-1.022 1.65,-2.964 3.395,-1.064c1.221,1.327 3.633,1.937 2.542,4.736c-1.644,4.221 -7.856,8.919 -12.34,8.99" style="fill:#040404;fill-rule:nonzero;"/><path d="M225.137,166.797c-3.772,-0.425 -7.054,-2.259 -9.573,-5.333c-5.162,-6.297 -10.295,-12.621 -15.315,-19.032c-1.837,-2.344 -3.374,-4.123 -6.082,-1.01c-1.328,1.525 -2.787,2.141 -4.371,-0.14c-1.345,-1.936 -2.753,-3.59 0.095,-5.211c3.365,-1.914 2.545,-3.74 0.389,-6.124c-2.346,-2.593 -1.132,-8.017 1.788,-9.647c0.747,-0.417 1.254,-0.219 1.747,0.228c0.489,0.443 0.877,0.997 1.322,1.491c5.063,5.615 5.194,5.773 11.27,0.76c2.705,-2.231 4.024,-1.593 5.833,0.9c1.969,2.714 -0.363,3.528 -1.722,4.695c-6.029,5.176 -6.09,5.175 -1.347,11.311c3.556,4.601 7.174,9.157 10.851,13.664c4.545,5.57 6.819,5.825 12.335,1.475c1.02,-0.804 1.844,-2.248 3.139,-0.503c1.087,1.466 3.837,2.555 2.184,4.877c-2.979,4.186 -6.886,7.204 -12.543,7.599" style="fill:#040404;fill-rule:nonzero;"/><path d="M858.397,458.575c0.395,1.762 0.794,3.501 -2.133,3.726c-2.31,0.177 -4.026,0.388 -4.882,-2.609c-2.756,-9.652 1.601,-16.799 11.652,-17.774c8.108,-0.787 16.277,-1.024 24.426,-1.253c3.244,-0.091 5.13,-0.812 4.425,-4.521c-0.451,-2.373 0.707,-3.252 3.044,-3.291c2.121,-0.036 3.74,0.289 3.531,2.847c-0.298,3.623 1.448,4.508 4.771,4.258c3.633,-0.273 6.824,3.156 6.7,6.613c-0.038,1.052 -0.486,1.485 -1.432,1.581c-0.829,0.084 -1.657,0.164 -2.486,0.226c-7.077,0.525 -7.106,0.526 -6.573,7.691c0.187,2.523 0.955,5.001 -3.146,5.162c-4.201,0.165 -3.368,-2.617 -3.472,-4.975c-0.321,-7.194 -0.312,-7.22 -7.472,-6.94c-6.486,0.253 -12.981,0.416 -19.451,0.905c-5.879,0.444 -7.891,2.844 -7.502,8.354" style="fill:#030303;fill-rule:nonzero;"/><path d="M552.625,112.627c-5.928,0.009 -7.263,-1.301 -6.078,-5.489c0.43,-1.52 1.06,-2.012 2.705,-2.144c8.785,-0.706 10.884,-2.287 13.39,-11.115c3.718,-13.106 7.148,-26.295 10.588,-39.479c0.892,-3.415 1.293,-6 6.335,-4.605c5.086,1.409 3.051,4.05 2.359,6.688c-3.335,12.696 -6.675,25.391 -10.14,38.052c-2.497,9.124 -6.56,16.861 -17.424,17.911c-0.661,0.064 -1.322,0.138 -1.735,0.181" style="fill:#040404;fill-rule:nonzero;"/><path d="M740.768,218.648c-4.074,-0.188 -7.855,-1.883 -11.238,-4.401c-1.6,-1.192 -3.854,-2.342 -1.631,-5.135c1.851,-2.326 3.148,-3.05 5.976,-1.033c5.093,3.631 8.695,3.27 14.372,-1.623c10.462,-9.016 20.634,-18.37 30.925,-27.587c0.743,-0.666 1.582,-1.268 2.178,-2.052c2.952,-3.889 4.602,-0.987 6.871,0.975c3.225,2.787 0.832,4.118 -0.994,5.777c-9.733,8.842 -19.442,17.709 -29.206,26.518c-4.875,4.399 -10.063,8.265 -17.253,8.561" style="fill:#050505;fill-rule:nonzero;"/><path d="M829.268,535.856c1.304,-0.017 2.766,0.214 2.868,3.205c0.251,7.372 2.15,9.954 9.655,11.91c14.16,3.689 28.456,6.842 42.667,10.336c2.104,0.518 5.066,0.157 4.081,4.457c-0.943,4.118 -2.057,5.387 -6.49,4.225c-12.388,-3.248 -24.925,-5.935 -37.393,-8.882c-4.216,-0.997 -8.372,-2.189 -12.065,-4.595c-5.906,-3.846 -9.077,-11.409 -7.637,-18.267c0.483,-2.305 0.721,-2.471 4.314,-2.389" style="fill:#040404;fill-rule:nonzero;"/><path d="M80.137,641.03c-5.839,-0.306 -10.125,-2.374 -12.945,-7.062c-1.353,-2.247 -0.905,-3.971 1.551,-4.586c1.91,-0.479 3.958,-3.744 6.022,0.463c3.157,6.429 8.186,8.409 15.471,5.78c7.635,-2.756 15.035,-6.206 22.406,-9.637c2.7,-1.257 4.212,-1.26 5.198,1.82c0.776,2.428 2.744,4.517 -1.361,6.282c-12.658,5.443 -25.185,11.201 -37.668,17.04c-2.391,1.118 -3.068,0.012 -3.543,-1.694c-0.496,-1.782 -3.043,-3.792 0.299,-5.431c1.448,-0.711 3.192,-0.95 4.57,-2.975" style="fill:#050505;fill-rule:nonzero;"/><path d="M458.51,44.227c3.215,-5.967 6.804,-9.44 12.418,-10.116c2.226,-0.268 3.781,0.496 3.303,2.952c-0.365,1.867 1.903,4.682 -2.266,5.385c-8.309,1.402 -11.763,5.412 -11.973,13.85c-0.187,7.491 -0.072,15.002 0.291,22.486c0.186,3.845 -1.601,4.131 -4.722,4.34c-3.681,0.247 -4.004,-1.423 -4.041,-4.37c-0.167,-13.161 -0.372,-26.326 -0.912,-39.475c-0.127,-3.095 0.965,-3.665 3.525,-3.845c2.569,-0.181 4.277,0.186 4.014,3.337c-0.108,1.298 0.157,2.626 0.363,5.456" style="fill:#040404;fill-rule:nonzero;"/><path d="M320.703,110.656c-0.489,2.661 -3.393,2.327 -5.194,3.416c-1.528,0.923 -2.707,0.705 -3.508,-1.194c-5.484,-13.009 -11.017,-25.997 -16.589,-38.969c-1.635,-3.807 1.903,-3.466 3.562,-4.48c1.661,-1.014 3.403,-2.087 4.665,0.943c5.361,12.88 10.904,25.685 16.377,38.519c0.196,0.458 0.363,0.929 0.687,1.765" style="fill:#050505;fill-rule:nonzero;"/><path d="M177.27,147.187c1.629,0.004 2.126,0.96 2.789,1.677c9.384,10.154 18.674,20.399 28.208,30.41c2.875,3.019 0.003,3.908 -1.374,5.373c-1.417,1.507 -2.729,3.539 -5.156,0.87c-9.411,-10.354 -18.96,-20.583 -28.415,-30.898c-0.68,-0.744 -2.122,-1.569 -0.832,-2.887c1.613,-1.648 3.339,-3.184 4.78,-4.545" style="fill:#050505;fill-rule:nonzero;"/><path d="M865.996,302.7c2.332,0.98 2.179,3.656 3.219,5.553c1.259,2.292 -0.513,2.946 -2.039,3.562c-5.868,2.366 -11.773,4.644 -17.652,6.984c-6.961,2.771 -13.962,5.454 -20.843,8.412c-3.441,1.479 -3.559,-1.263 -4.324,-3.024c-0.796,-1.834 -2.349,-3.939 0.964,-5.253c13.001,-5.155 25.966,-10.401 38.945,-15.609c0.461,-0.186 0.936,-0.339 1.73,-0.625" style="fill:#050505;fill-rule:nonzero;"/><path d="M485.651,60.556c0.35,-6.806 0.893,-13.609 0.971,-20.418c0.041,-3.638 1.476,-4.361 4.813,-4.235c3.259,0.122 4.393,1.138 4.18,4.426c-0.849,13.102 -1.631,26.211 -2.175,39.329c-0.158,3.816 -1.828,4.006 -5.025,3.905c-3.557,-0.112 -4.065,-1.528 -3.812,-4.588c0.507,-6.126 0.687,-12.279 1.001,-18.421c0.016,0.001 0.031,0.002 0.047,0.002" style="fill:#040404;fill-rule:nonzero;"/><path d="M875.154,482.028c-6.636,0 -13.276,-0.154 -19.906,0.06c-3.689,0.119 -3.428,-2.115 -3.418,-4.519c0.009,-2.396 -0.259,-4.642 3.428,-4.514c13.428,0.466 26.864,0.814 40.299,1.02c3.631,0.056 3.746,2.014 3.857,4.81c0.134,3.355 -1.171,4.286 -4.352,4.194c-6.632,-0.193 -13.272,-0.059 -19.909,-0.059c0.001,-0.331 0.001,-0.662 0.001,-0.992" style="fill:#050505;fill-rule:nonzero;"/><path d="M103.054,199.728c1.629,-4.579 4.231,-5.679 8.338,-5.024c6.048,0.965 6.088,0.708 3.948,-4.831c-1.9,-4.916 -1.9,-4.916 2.212,-9.242c2.596,4.507 3.821,9.41 5.231,14.181c0.784,2.651 -2.62,6.18 -5.585,6.04c-4.583,-0.217 -9.153,-0.712 -14.144,-1.124" style="fill:#090909;fill-rule:nonzero;"/><path d="M866.018,253.956c6.183,5.809 0.133,9.702 -1.747,14.9c2.718,0.297 5.221,0.648 7.735,0.815c1.599,0.106 2.963,0.421 3.604,2.058c0.405,1.037 1.719,1.874 1.123,3.112c-0.674,1.404 -2.07,0.633 -3.117,0.544c-3.136,-0.267 -6.268,-0.619 -9.384,-1.059c-5.094,-0.721 -7.022,-4.597 -4.546,-9.117c2.044,-3.732 4.171,-7.419 6.332,-11.253" style="fill:#070707;fill-rule:nonzero;"/><path d="M912.47,484.431c-3.117,-0.255 -5.095,-1.965 -5.248,-5.308c-0.158,-3.442 1.82,-5.302 5.103,-5.461c3.616,-0.174 5.644,1.897 5.689,5.431c0.044,3.4 -2.102,5.031 -5.544,5.338" style="fill:#0c0c0c;fill-rule:nonzero;"/><path d="M293.126,62.936c-3.088,-0.21 -5.099,-1.895 -5.216,-5.271c-0.118,-3.39 1.82,-5.343 5.094,-5.609c3.77,-0.307 5.693,2.245 5.806,5.463c0.112,3.185 -2.148,5.08 -5.684,5.417" style="fill:#0d0d0d;fill-rule:nonzero;"/><path d="M802.962,168.269c-0.427,3.224 -2.169,5.418 -5.4,5.487c-3.454,0.073 -5.678,-1.972 -5.626,-5.559c0.047,-3.345 2.155,-5.191 5.435,-5.192c3.343,-0.001 4.979,2.168 5.591,5.264" style="fill:#0b0b0b;fill-rule:nonzero;"/><path d="M880.687,295.997c3.313,0.157 5.288,1.946 5.436,5.214c0.164,3.647 -2.186,5.621 -5.534,5.657c-3.284,0.034 -5.139,-2.257 -5.167,-5.496c-0.025,-3.313 1.862,-5.157 5.264,-5.375" style="fill:#0a0a0a;fill-rule:nonzero;"/><path d="M901.001,575.161c-3.359,-0.356 -5.38,-1.975 -5.302,-5.42c0.081,-3.573 2.051,-5.671 5.633,-5.476c3.309,0.179 5.08,2.409 5.002,5.662c-0.079,3.337 -2.087,5.05 -5.333,5.234" style="fill:#090909;fill-rule:nonzero;"/><path d="M165.926,134.394c3.136,0.465 5.264,2.133 5.171,5.474c-0.09,3.226 -2.025,5.332 -5.319,5.34c-3.521,0.01 -5.603,-2.116 -5.476,-5.635c0.12,-3.314 2.39,-4.862 5.624,-5.179" style="fill:#0a0a0a;fill-rule:nonzero;"/><path d="M582.495,42.474c-2.908,-0.253 -5.285,-1.524 -5.476,-4.966c-0.182,-3.298 1.519,-5.38 4.895,-5.611c3.508,-0.239 5.847,1.371 5.937,5.052c0.081,3.299 -1.805,5.169 -5.356,5.525" style="fill:#090909;fill-rule:nonzero;"/><path d="M497.417,23.135c-0.362,3.148 -2.113,4.985 -5.489,4.971c-3.475,-0.014 -5.255,-2.137 -5.236,-5.314c0.022,-3.466 2.149,-5.614 5.704,-5.426c3.295,0.175 4.937,2.321 5.021,5.769" style="fill:#0a0a0a;fill-rule:nonzero;"/><path d="M255.988,715.008c-10.278,-10.629 -19.98,-21.758 -29.189,-33.326c-26.329,-33.075 -47.24,-69.226 -61.908,-108.92c-4.158,-11.254 -7.505,-22.771 -10.563,-34.363c-0.582,-2.207 -0.508,-4.62 -0.522,-6.94c-0.13,-21.339 2.213,-42.571 2.842,-63.871c0.87,-29.457 4.37,-59.226 -1.022,-88.292c-4.221,-22.752 3.465,-41.647 12.417,-60.744c17.711,-37.784 38.641,-73.71 64.224,-106.794c3.874,-5.009 8.081,-9.726 12.995,-13.775c5.586,-4.602 11.436,-5.922 17.861,-1.725c3.615,2.361 7.103,6.2 10.933,6.592c3.988,0.409 6.368,-5.143 10.208,-7.148c4.244,-2.215 8.162,-2.946 12.752,-0.562c10.355,5.378 19.387,11.886 22.615,23.85c1.582,5.864 0.869,11.913 0.494,17.877c-0.116,1.841 -0.486,3.552 0.991,5.567c3.487,-4.135 6.879,-7.956 10.047,-11.955c6.594,-8.326 14.084,-15.271 24.184,-19.429c16.035,-6.601 31.969,-13.393 49.238,-16.09c3.454,-0.54 7.908,-2.478 10.218,1.204c1.997,3.183 -1.599,6.074 -3.192,8.824c-4.245,7.331 -9.574,14.058 -12.08,22.335c-4.076,13.459 -0.449,17.852 13.394,16.117c3.959,-0.497 7.906,-1.097 11.859,-1.646c1.801,-0.251 3.878,-0.923 4.959,1.102c1.044,1.957 -0.617,3.49 -1.667,4.878c-2.912,3.847 -5.967,7.587 -9.014,11.33c-1.877,2.305 -2.144,4.383 -0.586,7.227c8.166,14.906 9.271,30.291 2.247,45.974c-1.015,2.268 -0.916,4.054 0.752,5.928c2.653,2.98 5.217,6.043 7.726,9.146c2.451,3.03 2.797,6.645 1.064,9.88c-7.309,13.643 -17.688,24.049 -32.495,29.49c-3.896,1.431 -8.082,1.088 -13.611,1.442c6.564,4.881 11.571,9.379 17.667,12.427c23.088,11.546 41.721,27.796 53.783,50.982c0.203,0.39 0.666,0.646 1.272,1.212c5.266,-8.009 10.216,-16.083 16.613,-23.095c12.838,-14.069 27.265,-25.954 45.481,-32.409c7.26,-2.573 11.239,-7.231 11.682,-15.001c0.373,-6.526 0.518,-12.986 -1.738,-19.26c-1.014,-2.819 -2.146,-4.047 -5.448,-2.148c-9.163,5.271 -17.525,11.514 -24.789,19.162c-6.122,6.444 -13.822,9.566 -22.245,11.491c-3.07,0.702 -6.167,0.233 -7.842,-1.964c-2.582,-3.387 -5.788,-4.07 -9.292,-3.352c-7.52,1.539 -12.224,-3.958 -18.006,-6.697c-12.832,-6.079 -12.87,-8.21 -6.039,-20.742c6.24,-11.45 13.776,-21.842 21.351,-32.359c7.518,-10.437 10.591,-22.569 8.532,-35.532c-0.719,-4.521 0.96,-8.273 2.926,-11.875c5.313,-9.741 8.348,-20.859 15.867,-29.228c12.324,-13.719 24.96,-27.367 41.084,-36.71c8.038,-4.657 13.687,-12.287 21.92,-16.27c6.363,-3.079 10.835,-8.645 16.837,-11.771c5.247,-2.732 7.765,-8.055 12.968,-11.321c0.291,4.353 -2.573,8.017 -0.359,13.075c3.238,-5.013 9.384,-5.305 12.587,-10.073c1.287,-1.917 2.875,-3.736 4.656,-5.196c3.463,-2.839 6.074,-6.093 7.05,-10.567c0.264,-1.212 0.473,-2.84 2.243,-2.89c1.821,-0.051 2.53,1.412 3.105,2.808c1.108,2.698 1.44,5.637 0.708,8.353c-3.054,11.322 -3.835,23.289 -9.344,33.906c-1.225,2.362 -0.074,4.215 0.53,6.193c0.923,3.023 1.935,5.987 0.173,9.01c-0.618,1.062 -0.619,2.22 0.554,2.386c7.358,1.039 7.53,7.431 9.545,12.473c0.101,0.254 0.453,0.409 0.741,0.655c1.763,-0.389 1.96,-2.125 2.618,-3.324c4.787,-8.728 12.727,-13.558 21.604,-16.78c5.356,-1.943 9.884,1.635 13.234,5.159c3.994,4.2 7.157,4.69 10.976,0.362c0.107,-0.121 0.267,-0.199 0.41,-0.283c11.799,-6.969 15.55,-9.391 28.94,5.135c20.947,22.723 36.275,49.288 51.327,75.978c10.058,17.834 19.439,36.052 27.047,55.113c2.347,5.879 4.246,11.898 6.02,17.976c2.19,7.508 0.592,14.796 -0.392,22.236c-3.024,22.864 -2.942,45.833 -1.84,68.83c1.116,23.284 1.045,46.674 3.295,69.842c2.681,27.594 -7.445,51.828 -17.599,75.986c-25.235,60.045 -64.47,109.955 -113.028,152.898c-18.371,16.247 -37.811,31.043 -58.526,44.151c-1.907,1.206 -4.395,4.148 -6.449,2.113c-2.495,-2.473 -3.891,-6.124 -5.475,-9.403c-0.509,-1.054 1.014,-1.449 1.833,-1.951c36.307,-22.262 68.43,-49.572 97.009,-81.047c40.776,-44.91 71.161,-95.748 87.603,-154.515c2.315,-8.271 1.797,-16.516 1.453,-24.796c-1.446,-34.78 -3.92,-69.528 -3.694,-104.357c0.101,-15.645 0.64,-31.322 3.677,-46.759c1.034,-5.26 0.105,-10.275 -1.456,-15.248c-5.471,-17.414 -14.031,-33.427 -22.413,-49.529c-15.097,-29.004 -31.86,-56.96 -52.011,-82.772c-2.95,-3.778 -6.709,-6.915 -9.966,-10.466c-1.676,-1.827 -3.169,-1.738 -5.263,-0.661c-12.073,6.206 -16.504,15.732 -14.095,31.035c2.579,16.383 10.382,30.746 17.129,45.617c5.751,12.675 16.055,22.261 21.498,35.073c8.516,20.05 11.807,40.444 6.976,61.936c-1.088,4.839 -1.331,9.872 -1.862,14.826c-0.102,0.947 -0.021,2.129 0.466,2.89c6.873,10.742 7.004,22.815 6.427,34.816c-1.107,23.017 -4.955,45.675 -10.572,68.003c-3.188,12.676 -9.779,23.767 -18.485,33.32c-17.009,18.662 -27.247,40.775 -34.893,64.472c-6.031,18.697 -12.859,37.137 -18.211,56.052c-0.73,2.585 -1.877,3.155 -4.269,2.473c-10.122,-2.89 -10.484,0.237 -6.6,-11.507c7.109,-21.498 14.258,-42.983 21.56,-64.417c6.737,-19.775 16.947,-37.622 30.982,-53.122c11.927,-13.17 18.457,-28.64 21.163,-46.015c2.535,-16.285 5.578,-32.497 6.54,-48.989c0.488,-8.368 0.292,-16.721 -2.651,-24.667c-4.945,-13.355 -19.479,-17.116 -30.352,-7.964c-9.741,8.198 -15.113,19.3 -19.925,30.694c-5.86,13.871 -9.3,28.399 -12.053,43.193c-3.246,17.449 -13.254,31.385 -25.03,44.156c-11.53,12.502 -24.63,23.384 -36.612,35.416c-5.526,5.55 -11.392,10.372 -18.148,14.532c-23.483,14.458 -40.978,34.722 -54.391,58.648c-9.91,17.679 -17.533,36.263 -21.794,56.124c-0.817,3.811 -3.943,5.647 -6.053,8.347c-0.992,1.268 -1.993,0.38 -2.863,-0.568c-2.824,-3.079 -5.019,-6.282 -6.105,-10.582c-9.158,-36.246 -25.739,-68.42 -52.945,-94.589c-7.827,-7.529 -16.298,-14.308 -25.958,-19.309c-7.199,-3.728 -11.859,-10.093 -17.504,-15.427c-11.735,-11.088 -23.742,-21.874 -34.892,-33.603c-12.812,-13.477 -20.439,-29.386 -24.479,-47.254c-3.648,-16.132 -8.314,-31.911 -16.17,-46.561c-4.021,-7.499 -8.773,-14.358 -15.405,-20.026c-11.538,-9.86 -26.455,-3.498 -31.012,9.159c-3.138,8.712 -3.373,17.672 -2.772,26.65c1.436,21.454 4.773,42.665 9.763,63.569c3.043,12.748 10.117,23.427 18.758,33.141c15.049,16.92 25.692,36.334 32.743,57.816c7.219,21.992 14.665,43.909 21.885,65.901c0.619,1.886 2.63,4.775 0.535,5.918c-3.41,1.858 -7.48,2.862 -11.502,2.525c-1.299,-0.109 -1.269,-2.132 -1.661,-3.385c-8.691,-27.806 -17.333,-55.636 -28.266,-82.666c-5.548,-13.716 -13.824,-25.845 -23.636,-36.831c-13.12,-14.688 -21.355,-31.587 -24.729,-50.971c-3.254,-18.697 -6.617,-37.372 -7.458,-56.384c-0.546,-12.327 1.279,-24.125 6.602,-35.458c2.479,-5.278 0.426,-11.285 -0.741,-16.573c-3.939,-17.844 -3.129,-35.067 2.095,-52.668c4.088,-13.773 11.676,-25.055 19.337,-36.807c9.763,-14.976 17.414,-31.256 22.428,-48.595c1.681,-5.809 2.611,-11.677 2.279,-17.75c-0.556,-10.206 -5.223,-17.623 -14.39,-22.33c-2.803,-1.44 -4.687,-1.276 -6.975,0.991c-9.06,8.979 -16.271,19.411 -23.282,29.922c-19.607,29.396 -37.526,59.781 -52.086,92.043c-2.257,5 -4.006,10.228 -6.197,15.261c-4.248,9.755 -2.113,19.588 -0.791,29.493c2.655,19.88 2.607,39.887 1.867,59.867c-1.03,27.789 -2.151,55.583 -3.915,83.332c-0.988,15.535 3.883,29.584 8.887,43.674c27.865,78.475 78.478,139.838 143.59,190.216c10.541,8.156 21.462,15.794 32.921,22.611c2.65,1.576 3.423,2.679 1.703,5.682c-4.736,8.27 -4.634,8.466 -12.685,3.364c-23.98,-15.194 -45.995,-32.911 -66.7,-52.291c-6.149,-6.219 -13.134,-11.572 -18.897,-18.193Zm20.941,-443.038c5.056,-3.131 8.558,-6.282 12.655,-7.643c10.233,-3.399 13.262,-11.596 15.39,-20.721c0.566,-2.425 1.231,-4.827 1.75,-7.261c2.731,-12.799 -0.661,-20.836 -11.416,-26.892c-2.066,-1.163 -4.361,-3.223 -6.586,-0.409c-2.222,2.813 -7.15,4.066 -4.773,9.572c4.036,9.35 3.601,18.953 1.109,28.754c-2.004,7.884 -4.654,15.516 -8.129,24.6Zm363.524,-33.26c-0.265,-8.288 -0.312,-15.836 2.368,-23.151c0.927,-2.53 -6.145,-9.088 -8.514,-8.017c-5.384,2.437 -10.083,5.781 -12.372,11.63c-1.314,3.361 0.702,5.011 3.328,4.641c3.551,-0.502 4.5,1.606 5.131,3.919c0.606,2.22 -0.16,4.915 3.873,2.939c1.844,-0.903 3.163,1.144 3.536,3.147c0.291,1.566 0.114,3.328 2.65,4.892Z" style="fill:#9e0059;"/><path d="M574.935,865.162c0.256,3.711 -0.993,7.303 -3.116,10.575c-1.199,1.848 -0.984,2.777 1.091,3.73c9.008,4.142 13.145,11.561 13.053,21.184c-0.092,9.725 -5.159,16.654 -13.616,21.1c-9.742,5.122 -20.359,7.086 -31.17,8.3c-2.339,0.263 -3.149,-0.725 -3.654,-2.891c-5.514,-23.665 -11.114,-47.31 -16.721,-70.953c-0.409,-1.728 -0.781,-3.299 1.357,-4.145c11.335,-4.488 22.724,-8.977 35.277,-7.068c10.574,1.608 17.44,9.654 17.499,20.168Zm-18.615,25.25c7.492,-0.004 11.338,2.649 12.563,8.223c1.182,5.382 -1.375,9.633 -7.498,12.46c-9.11,4.205 -9.963,3.806 -12.067,-5.585c-0.508,-2.267 -1.047,-4.527 -1.592,-6.784c-1.683,-6.974 -1.689,-6.985 5.268,-8.002c1.311,-0.192 2.642,-0.25 3.326,-0.312Zm-6.756,-31.421c4.197,-0.048 7.514,1.292 8.841,5.694c1.361,4.514 -0.481,7.74 -4.173,10.187c-0.552,0.365 -1.147,0.672 -1.744,0.962c-8.246,4.021 -9.486,3.444 -11.434,-5.318c-0.072,-0.325 -0.132,-0.652 -0.207,-0.976c-2.077,-8.989 -0.808,-10.525 8.717,-10.549Z"/><path d="M433.799,895.486c0.287,-19.382 9.987,-34.482 25.468,-39.656c21.567,-7.208 42.702,4.044 47.959,26.156c3.817,16.056 2.738,31.793 -9.144,44.53c-19.355,20.747 -53.324,12.724 -61.925,-14.293c-1.731,-5.436 -2.429,-11.037 -2.358,-16.737Zm17.051,-0.372c-0.172,7.414 1.576,13.973 5.18,19.474c7.69,11.736 23.654,11.68 31.244,-0.109c6.663,-10.348 6.247,-27.966 -0.896,-37.999c-7.999,-11.235 -23.686,-10.747 -30.948,0.961c-3.36,5.417 -4.437,11.423 -4.58,17.673Z" style="fill:#010101;"/><path d="M670.333,861.951c0.018,16.897 -9.488,30.184 -24.767,35.874c-14.017,5.223 -29.9,1.082 -39.753,-10.746c-11.413,-13.703 -17.171,-29.205 -10.802,-46.724c9.464,-26.029 41.372,-32.558 60.616,-12.736c9.551,9.839 14.2,21.911 14.706,34.332Zm-61.362,-8.945c0.09,-9.579 3.019,-15.791 10.082,-19.434c7.258,-3.741 14.321,-2.793 20.461,2.385c10.622,8.958 16.038,20.345 13.477,34.361c-2.108,11.536 -14.458,17.718 -25.015,12.58c-13.05,-6.352 -17.561,-18.208 -19.005,-29.892Z" style="fill:#010101;"/><path d="M752.541,827.235c-4.45,3.499 -8.394,6.473 -12.183,9.631c-1.971,1.643 -3.446,0.387 -4.933,-0.508c-5.444,-3.272 -10.197,-7.464 -15.078,-11.489c-6.851,-5.649 -10.728,-5.51 -17.744,-0.143c-2.262,1.731 -1.993,2.887 -0.52,4.773c5.124,6.561 10.061,13.27 15.274,19.757c1.789,2.228 2.201,3.448 -0.376,5.53c-10.038,8.115 -9.928,8.199 -17.778,-2.064c-12.951,-16.933 -25.885,-33.882 -38.978,-50.704c-1.774,-2.278 -1.997,-3.523 0.088,-5.733c6.68,-7.079 13.893,-13.495 22.496,-18.064c8.134,-4.32 16.669,-5.297 24.607,0.328c8.293,5.876 12.17,13.945 9.89,24.285c-0.423,1.918 -0.376,3.105 1.987,3.528c4.908,0.879 8.815,3.739 12.606,6.798c6.324,5.101 12.286,10.718 20.642,14.075Zm-60.101,-36.633l0,0l-0.001,0l0.001,0c-4.843,0.454 -8.846,3.657 -12.721,7.108c-1.266,1.128 -0.496,1.947 0.269,2.927c3.268,4.19 6.462,8.439 9.717,12.638c0.779,1.006 1.539,2.474 3.159,1.231c3.681,-2.826 7.646,-5.438 9.452,-9.999c2.493,-6.296 -2.603,-13.887 -9.876,-13.905Z" style="fill:#010101;"/><path d="M288.827,897.737c0.808,-6.247 1.447,-12.38 2.458,-18.45c0.435,-2.608 -0.205,-3.973 -2.596,-5.064c-5.146,-2.345 -10.072,-6.658 -15.282,-6.974c-5.586,-0.338 -8.3,6.608 -12.311,10.283c-6.679,6.121 -6.489,6.329 -14.879,2.086c-6.745,-3.411 -6.752,-3.418 -1.516,-8.642c17.444,-17.407 34.944,-34.76 52.293,-52.261c2.637,-2.662 4.648,-3.119 8.107,-1.27c9.955,5.32 10.144,5.141 8.738,16.05c-3,23.278 -6.166,46.534 -9.093,69.82c-0.484,3.849 -1.452,5.07 -5.111,2.827c-2.684,-1.645 -5.618,-2.893 -8.479,-4.237c-1.889,-0.888 -2.956,-2.113 -2.329,-4.168Zm7.742,-55.229c-0.641,5.327 -1.265,10.656 -1.934,15.98c-0.147,1.162 -0.381,2.539 -2.087,1.751c-2.842,-1.309 -5.691,-2.634 -8.404,-4.184c-2.16,-1.233 -0.167,-2.222 0.562,-2.989c3.516,-3.703 7.131,-7.31 10.711,-10.952c0.384,0.131 0.768,0.263 1.152,0.394Z" style="fill:#010101;"/><path d="M44.647,525.592c-1.931,-1.562 -5.321,1.758 -6.179,-2.558c-0.706,-3.551 -0.623,-5.31 3.819,-5.868c12.216,-1.534 24.352,-3.715 36.528,-5.584c2.297,-0.352 4.631,-0.592 6.953,-0.638c12.562,-0.25 19.609,5.229 22.518,17.433c1.174,4.927 1.195,9.884 0.461,14.888c-0.456,3.108 -1.752,4.119 -5.057,3.531c-3.623,-0.645 -2.557,-2.633 -2.083,-4.707c0.112,-0.486 0.203,-0.979 0.265,-1.475c1.94,-15.417 -6.048,-25.044 -22.174,-20.18c2.948,2.823 5.993,5.351 7.489,9.119c3.835,9.661 0.057,19.846 -9.41,25.167c-12.21,6.864 -28.48,3.712 -34.712,-6.94c-4.475,-7.646 -4.034,-15.208 1.582,-22.188Zm18.365,23.832c3.957,-0.072 8.13,-1.066 11.935,-3.352c5.424,-3.256 7.697,-9.137 5.881,-15.05c-1.687,-5.491 -7.045,-9.27 -13.077,-8.744c-3.961,0.345 -7.952,1.011 -11.78,2.074c-5.071,1.408 -8.275,4.927 -8.982,10.257c-0.698,5.258 2.147,10.28 6.879,12.843c2.727,1.477 5.67,1.842 9.144,1.972Z" style="fill:#040404;"/><path d="M825.667,679.731c-6.669,3.741 -13.077,2.057 -19.513,0.065c-3.019,-0.933 -6.195,-1.412 -9.143,-2.515c-1.645,-0.616 -5.488,0.718 -4.5,-2.632c0.846,-2.87 2.037,-7.155 7.154,-5.583c4.448,1.366 8.972,2.483 13.458,3.726c11.326,3.137 14.529,-2.264 19.119,-11.141c1.154,-2.232 -1.156,-2.411 -2.232,-3.035c-6.05,-3.505 -12.063,-7.107 -18.315,-10.219c-3.574,-1.778 -2.788,-3.491 -1.332,-6.198c1.513,-2.811 2.755,-3.337 5.707,-1.646c16.466,9.434 33.033,18.694 49.651,27.856c2.859,1.577 3.788,3.02 2.284,6.183c-3.22,6.772 -6.107,13.73 -11.235,19.351c-5.684,6.227 -12.283,8.026 -19.373,5.21c-7.385,-2.934 -11.313,-8.445 -11.438,-16.509c-0.013,-0.808 -0.157,-1.613 -0.292,-2.913Zm19.167,11.94c2.408,-0.048 4.901,-1.201 7.055,-3.18c2.611,-2.398 4.174,-5.519 5.991,-8.487c2.113,-3.449 1.578,-5.654 -2.338,-7.224c-2.591,-1.039 -4.947,-2.674 -7.389,-4.078c-10.124,-5.82 -10.767,-5.587 -14.774,5.49c-0.226,0.623 -0.392,1.267 -0.566,1.907c-2.146,7.835 3.398,15.355 12.021,15.572Z" style="fill:#040404;"/><path d="M123.731,656.487c9.96,1.27 15.48,6.494 17.568,15.041c2.077,8.502 -1.493,15.261 -7.74,20.796c-4.978,4.41 -10.739,7.269 -17.437,7.864c-14.724,1.306 -24.924,-9.797 -22.185,-25.186c-6.958,4.126 -13.511,7.77 -19.791,11.837c-3.183,2.059 -4.385,0.871 -6.096,-1.81c-1.887,-2.955 -1.395,-4.307 1.58,-6.052c17.635,-10.345 35.162,-20.877 52.688,-31.406c1.955,-1.175 3.479,-2.605 5.076,0.528c1.251,2.456 3.194,4.617 -0.761,6.335c-0.719,0.313 -1.313,0.913 -2.902,2.053Zm-10.237,35.343c6.735,-0.737 13.335,-3.825 17.812,-10.465c3.513,-5.21 3.137,-10.453 -0.648,-15.181c-3.59,-4.486 -9.351,-6.284 -14.754,-3.838c-4.196,1.899 -8.229,4.367 -11.91,7.143c-4.432,3.343 -5.734,9.035 -3.905,13.88c1.962,5.196 6.747,8.484 13.405,8.461Zm10.237,-35.343" style="fill:#040404;"/><path d="M402.578,81.42c0,2.339 0.607,4.462 -0.149,5.834c-1.02,1.853 -3.587,1.371 -5.503,1.444c-2.298,0.087 -1.729,-1.983 -1.905,-3.336c-2.598,-19.956 -5.13,-39.921 -7.792,-59.867c-0.464,-3.476 -0.75,-5.978 4.076,-6.366c3.513,-0.283 4.273,0.984 4.611,3.919c0.892,7.752 1.963,15.484 3.056,23.944c3.279,-3.609 6.072,-6.8 10.16,-8.389c8.505,-3.307 18.243,-0.536 23.331,7.328c5.799,8.961 6.706,18.895 2.839,28.687c-5.163,13.073 -19.524,16.023 -32.724,6.802Zm-1.692,-20.265c0.266,1.931 0.519,5.266 1.214,8.505c1.315,6.12 6.317,10.281 12.286,10.543c6.303,0.277 11.572,-3.501 13.414,-9.78c1.605,-5.474 1.079,-10.9 -0.998,-16.136c-2.862,-7.212 -8.912,-10.654 -15.719,-9.142c-6.373,1.415 -10.391,7.162 -10.197,16.01Z" style="fill:#030303;"/><path d="M845.713,401.759c0.134,-13.358 11.146,-22.902 26.263,-22.76c13.629,0.129 23.593,10.156 23.618,23.764c0.023,13.477 -11.377,23.36 -26.577,23.042c-13.591,-0.285 -23.44,-10.447 -23.304,-24.046Zm23.704,14.932c5.238,-0.234 10.315,-1.547 14.517,-5.191c3.762,-3.265 5.619,-7.262 4.48,-12.384c-1.15,-5.169 -4.189,-8.581 -9.217,-10.086c-7.646,-2.288 -14.824,-1.104 -21.233,3.638c-7.806,5.774 -7.126,16.678 1.213,21.613c3.101,1.835 6.52,2.317 10.24,2.41Z" style="fill:#030303;"/><path d="M792.455,689.966c9.936,0.935 18.106,7.136 23.085,17.447c3.866,8.008 1.783,17.4 -4.635,23.958c-7.518,7.682 -22.94,6.723 -29.633,-1.695c-1.511,-1.9 -0.011,-2.698 0.769,-3.758c5.139,-6.973 10.181,-14.026 15.587,-20.787c2.52,-3.151 1.429,-4.394 -1.612,-5.693c-6.386,-2.728 -12.638,-1.284 -17.559,4.304c-2.784,3.161 -4.707,6.872 -6.231,10.754c-0.606,1.547 -1.269,2.431 -2.837,1.531c-1.414,-0.812 -3.748,-0.601 -3.507,-3.408c0.897,-10.42 14.228,-22.674 26.573,-22.653Zm6.276,39.266c-0.502,-0.074 -1.502,-0.14 -2.462,-0.374c-5.771,-1.412 -6.322,-2.781 -2.893,-7.471c3.223,-4.407 6.524,-8.758 9.826,-13.105c0.864,-1.139 1.558,-2.646 3.442,-0.93c3.292,2.996 4.909,9.809 3.148,14.31c-1.842,4.706 -5.97,7.664 -11.062,7.57l0.001,0Z" style="fill:#040404;"/><path d="M798.112,200.563c9.437,-0.031 17.977,6.372 20.475,15.346c2.282,8.201 -2.601,18.573 -10.706,23.429c-2.416,1.447 -3.225,0.112 -4.36,-1.409c-5.178,-6.938 -10.498,-13.774 -15.512,-20.828c-2.123,-2.988 -3.594,-2.42 -5.584,-0.072c-4.463,5.271 -4.959,12.166 -1.06,18.034c2.22,3.34 4.81,6.373 8.072,8.772c1.301,0.957 3.135,1.655 1.269,3.786c-1.484,1.693 -2.68,3.485 -5.271,1.57c-17.91,-13.232 -20.852,-32.508 -0.634,-44.839c4.034,-2.459 8.536,-3.712 13.311,-3.789Zm1.064,7.108c5.786,-0.005 10.093,2.914 12.129,7.859c1.784,4.332 0.48,8.958 -3.296,12.622c-1.541,1.495 -2.492,1.716 -3.872,-0.195c-3.298,-4.568 -6.807,-8.984 -10.175,-13.502c-3.208,-4.303 -2.894,-5.142 2.295,-6.364c1.123,-0.264 2.292,-0.333 2.919,-0.42Z" style="fill:#050505;"/><path d="M138.941,257.2c1.173,6.38 0.881,11.723 -2.585,16.532c-3.979,5.518 -9.591,7.689 -15.665,5.892c-5.847,-1.73 -10.293,-7.525 -10.525,-13.781c-0.245,-6.573 2.137,-12.466 5.32,-17.953c1.94,-3.344 0.587,-4.311 -2.271,-5.217c-4.604,-1.46 -8.315,0.036 -11.316,4.862c-1.87,3.008 -2.869,6.352 -3.441,9.834c-0.216,1.312 -0.37,2.943 -2.348,2.247c-1.527,-0.538 -4.082,-0.075 -3.765,-2.941c0.891,-8.079 3.707,-15.31 10.511,-20.178c6.035,-4.318 12.372,-2.994 18.357,0.405c8.246,4.682 16.375,9.568 24.572,14.338c1.209,0.703 2.521,1.346 1.233,2.93c-1.329,1.635 -1.296,4.801 -4.543,4.351c-0.95,-0.131 -1.843,-0.672 -3.534,-1.321Zm-21.825,5.261c0.093,4.9 4.101,9.016 8.779,9.016c4.545,0.001 8.527,-4.977 8.427,-10.536c-0.09,-4.967 -7.173,-12.984 -11.135,-12.603c-2.099,0.203 -6.156,9.64 -6.071,14.123Z" style="fill:#040404;"/><path d="M693.451,150.059c-4.503,1.092 -8.85,0.536 -12.962,-1.612c-7.001,-3.656 -10.113,-10.084 -8.174,-16.886c1.924,-6.743 8.112,-10.924 15.664,-10.533c5.998,0.31 11.399,2.582 16.213,5.9c3.267,2.251 4.493,1.225 5.628,-1.895c1.597,-4.391 0.184,-7.835 -3.181,-10.632c-2.857,-2.375 -6.198,-3.887 -9.852,-4.567c-1.926,-0.358 -3.592,-0.465 -2.905,-3.303c0.603,-2.488 1.715,-3.215 4.204,-2.762c7.155,1.303 13.289,4.437 17.696,10.245c4.816,6.348 3.338,12.998 -0.434,19.124c-5.05,8.205 -10.582,16.112 -15.846,24.187c-0.843,1.294 -1.777,2.358 -3.039,0.945c-1.375,-1.54 -4.888,-1.415 -3.965,-4.784c0.287,-1.047 1.342,-1.857 0.953,-3.427Zm-3.136,-4.892c5.724,0.057 12.528,-4.491 12.749,-9.72c0.182,-4.272 -5.105,-4.519 -8.154,-6.292c-0.563,-0.326 -1.237,-0.474 -1.872,-0.659c-3.974,-1.157 -7.614,-0.706 -10.406,2.607c-2.021,2.398 -3.072,5.149 -1.603,8.271c1.925,4.093 5.524,5.445 9.286,5.793Z" style="fill:#040404;"/><path d="M92.652,359.614c2.733,5.219 3.876,9.96 2.63,15.071c-1.706,7 -6.737,11.424 -13.207,11.506c-7.256,0.092 -13.3,-4.523 -15.003,-11.503c-1.414,-5.794 -1.141,-11.639 0.347,-17.307c0.977,-3.719 -0.592,-4.389 -3.621,-4.433c-4.566,-0.066 -8.232,2.895 -9.517,7.958c-0.825,3.257 -0.916,6.583 -0.437,9.917c0.212,1.48 0.676,3.068 -1.726,3.216c-2.021,0.124 -3.989,0.574 -4.472,-2.395c-1.344,-8.256 -0.422,-16.053 5.305,-22.479c5.119,-5.745 11.827,-5.161 18.531,-3.524c8.241,2.012 16.476,4.05 24.692,6.161c1.342,0.344 4.128,-0.472 3.293,2.295c-0.647,2.145 0.332,5.927 -3.97,5.677c-0.636,-0.037 -1.272,-0.072 -2.845,-0.16Zm-20.287,6.292c-0.037,6.633 3.655,11.165 9.254,11.359c4.456,0.155 7.567,-3.007 8.135,-8.271c0.733,-6.78 -5.136,-13.379 -13.211,-12.951c-5.582,0.297 -2.782,6.489 -4.178,9.863Z" style="fill:#040404;"/><path d="M834.254,599.741c-2.078,-5.111 -3.174,-9.83 -1.521,-14.895c2.386,-7.312 7.353,-11.251 14.183,-10.874c7.067,0.39 12.677,5.487 13.918,12.768c0.941,5.513 0.515,11.028 -1.307,16.248c-1.519,4.356 0.382,5.349 4.055,5.356c3.893,0.006 6.641,-1.823 8.278,-5.321c1.809,-3.861 2.33,-7.944 1.966,-12.16c-0.115,-1.345 -0.45,-2.893 1.656,-2.756c1.504,0.098 3.833,-0.974 4.25,1.327c1.354,7.474 0.125,14.575 -4.194,20.935c-3.668,5.403 -9.018,7.138 -15.245,6.179c-2.936,-0.453 -5.817,-1.374 -8.666,-2.266c-7.132,-2.23 -14.233,-4.555 -21.339,-6.865c-1.544,-0.502 -4.28,-0.177 -2.952,-3.128c0.918,-2.04 0.288,-6.039 4.736,-4.568c0.437,0.145 0.962,0.02 2.182,0.02Zm20.634,-5.857c0,0.498 0.075,1.009 -0.013,1.491c-0.609,3.344 -0.403,7.13 -3.228,9.509c-1.449,1.219 -10.25,-3.546 -11.925,-6.048c-2.606,-3.895 -2.525,-9.673 0.217,-13.114c2.25,-2.823 5.198,-3.413 8.501,-2.399c4.398,1.353 6.556,4.946 6.448,10.561Z" style="fill:#040404;"/><path d="M610.291,104.767c-5.233,1.921 -9.896,2.604 -14.743,1.063c-6.75,-2.145 -10.856,-7.481 -10.521,-14.003c0.344,-6.689 5.129,-12.379 11.699,-13.788c6.213,-1.333 12.319,-0.39 18.176,1.635c3.81,1.316 4.797,-0.204 5.015,-3.508c0.306,-4.636 -2.066,-7.557 -6.035,-9.367c-3.382,-1.543 -6.98,-2.216 -10.701,-1.898c-1.869,0.16 -3.287,0.112 -3.199,-2.405c0.07,-1.963 0.062,-3.69 2.686,-3.847c8.305,-0.496 16.107,0.988 21.946,7.302c5.152,5.571 4.197,12.254 1.891,18.822c-2.809,8.001 -5.634,15.997 -8.494,23.98c-0.54,1.509 -0.246,4.358 -3.15,3.04c-1.928,-0.875 -5.582,-0.295 -4.798,-4.337c0.122,-0.624 0.114,-1.273 0.228,-2.689Zm-5.682,-20.929m0,0c0.375,0.027 1.248,-0.066 2.018,0.174c3.276,1.02 7.898,-0.021 9.308,3.988c1.133,3.223 -4.014,10.292 -7.66,11.946c-4.553,2.066 -10.589,0.839 -13.102,-2.806c-2.47,-3.584 -1.319,-6.951 1.003,-10.086c1.977,-2.668 4.9,-3.179 8.433,-3.216Z" style="fill:#030303;"/><path d="M77.816,471.13c4.232,4.293 6.573,8.907 6.478,14.578c-0.117,6.927 -3.543,11.943 -9.46,13.723c-6.429,1.932 -12.961,-0.242 -16.772,-5.693c-3.654,-5.225 -5.048,-11.23 -5.169,-17.448c-0.08,-4.156 -1.645,-4.689 -5.177,-3.481c-4.407,1.508 -6.354,4.641 -6.583,9.001c-0.194,3.708 0.646,7.269 2.249,10.633c0.701,1.472 1.931,2.955 -0.721,3.908c-1.977,0.71 -3.671,1.53 -4.939,-1.156c-3.175,-6.725 -4.201,-13.686 -2.166,-20.857c1.797,-6.334 6.698,-9.225 12.827,-10.372c6.256,-1.172 12.607,-0.695 18.913,-1.006c3.156,-0.154 6.324,-0.5 9.467,-0.35c2.029,0.097 5.113,-2.634 5.932,1.809c0.72,3.901 0.036,5.017 -4.879,6.711Zm-18.962,4.319c0.493,10.261 4.658,16.098 11.097,15.794c4.731,-0.224 8.062,-3.881 7.771,-8.532c-0.43,-6.884 -5.882,-11.532 -13.226,-11.028c-2.536,0.174 -6.768,-1.493 -5.642,3.766Z" style="fill:#040404;"/><path d="M741.058,745.219c0.475,-7.075 2.507,-12.876 8.19,-16.776c5.132,-3.523 10.938,-3.576 15.841,-0.153c5.387,3.76 7.556,10.385 5.559,17.316c-1.605,5.567 -4.886,10.195 -8.776,14.333c-2.091,2.225 -1.747,3.405 0.648,4.929c4.778,3.042 9.122,2.225 13.595,-2.728c2.046,-2.266 3.366,-4.92 4.533,-7.691c0.462,-1.096 0.424,-3.125 2.414,-2.173c1.485,0.711 3.72,0.849 3.721,3.391c0.004,10.598 -16.141,21.806 -25.905,17.894c-4.092,-1.641 -7.215,-4.675 -10.351,-7.669c-5.41,-5.164 -10.862,-10.284 -16.329,-15.387c-1.27,-1.184 -3.603,-2.065 -1.227,-4.138c1.707,-1.488 2.67,-5.396 6.162,-2.316c0.36,0.318 0.829,0.511 1.925,1.168Zm22.974,-2.059c-0.142,-2.158 -0.776,-3.971 -1.883,-5.426c-0.992,-1.304 -2.364,-2.321 -4.103,-3.042c-3.636,-1.506 -6.423,0.112 -8.74,2.883c-5.219,6.245 -2.533,16.852 4.962,19.763c0.732,0.284 1.285,0.297 1.769,-0.219c3.776,-4.021 7.273,-8.209 7.995,-13.959Z" style="fill:#040404;"/></g></svg>